<svg width="1440" height="960" viewBox="0 0 1440 960" fill="none" xmlns="http://www.w3.org/2000/svg">
<g opacity="0.03">
<mask id="mask0_2041_24648" style="mask-type:luminance" maskUnits="userSpaceOnUse" x="0" y="-1" width="1441" height="961">
<path d="M1440 -0.00012207H0.00390625V960H1440V-0.00012207Z" fill="white"/>
</mask>
<g mask="url(#mask0_2041_24648)">
<path d="M523.646 509.146C490.968 473.088 457.272 436.762 434.712 393.254C410.309 346.176 401.285 293.049 405.125 240.422C408.984 187.45 425.304 131.328 451.224 84.9407C473.016 45.9455 501.182 10.8671 525.086 -26.8417H522.629C515.179 -15.2641 507.403 -4.03207 499.858 6.95033C486.014 27.1103 471.768 46.9823 458.731 67.6799C445.829 88.1279 436.056 109.709 427.57 132.326C409.56 180.269 399.499 231.494 402.283 282.816C404.99 332.736 421.771 380.582 448.901 422.4C473.458 460.243 506.002 493.344 536.261 526.598C566.731 560.102 597.24 593.683 624.312 630.048C650.482 665.165 673.042 703.277 686.885 744.979C701.65 789.466 703.608 836.006 695.333 881.952C688.67 918.989 675.23 954.105 657.144 986.861H659.659C663.806 979.277 667.723 971.558 671.39 963.705C689.477 925.037 700.632 882.893 702.667 840.211C704.664 798.086 695.563 756.442 679.128 717.811C644.914 637.363 581.438 572.966 523.627 509.146H523.646Z" fill="#FF9EBB"/>
<path d="M490.527 504.326C458.904 465.658 426.188 426.758 405.586 380.832C382.93 330.317 377.516 274.157 385.752 219.744C393.72 167.213 413.554 113.03 442.853 68.6591C464.741 35.5199 490.661 5.31833 513.912 -26.8417H511.32C504.6 -17.7025 497.746 -8.77448 491.064 -0.038475C476.204 19.3727 460.978 38.5151 446.885 58.5023C432.178 79.3919 420.831 101.76 410.866 125.242C390.744 172.608 378.629 223.584 379.628 275.213C380.607 326.784 396.831 376.57 423.845 420.25C447.884 459.11 479.026 494.016 507.903 529.286C537.336 565.19 566.482 601.459 591.423 640.685C615.48 678.528 634.911 719.558 644.242 763.584C654.111 810.144 649.983 857.856 636.274 903.168C627.327 932.755 614.175 960.672 597.97 986.822H600.485C603.077 982.618 605.631 978.355 608.069 974.054C629.343 936.729 643.954 895.565 649.829 852.96C655.781 809.779 650.136 766.118 636.005 725.069C607.032 640.992 545.88 572.006 490.508 504.269L490.527 504.326Z" fill="#FF9EBB"/>
<path d="M460.782 506.688C429.275 466.08 396.539 425.146 377.205 377.05C356.737 326.15 353.377 270.451 363.265 216.787C372.942 164.237 394.523 110.669 425.435 67.0271C448.456 34.5215 475.259 4.91513 499.24 -26.8417H496.686C488.565 -16.2817 480.193 -6.02888 472.11 3.97432C457.307 22.2719 442.216 40.3391 428.161 59.2319C412.84 79.8335 400.878 102.029 390.261 125.376C368.776 172.608 355.374 223.718 355.317 275.789C355.259 327.917 370.849 378.509 397.461 423.091C421.019 462.566 451.336 498.393 479.483 534.643C508.225 571.68 536.603 609.178 560.373 649.67C583.317 688.723 601.153 730.982 608.334 775.91C615.88 822.989 609.141 870.816 593.224 915.475C584.257 940.646 572.257 964.454 557.953 986.88H560.507C561.486 985.363 562.465 983.827 563.406 982.291C609.678 907.584 626.805 818.918 601.057 733.939C574.984 647.923 514.907 576.499 460.763 506.707L460.782 506.688Z" fill="#FF9EBB"/>
<path d="M430.623 504.749C400.037 463.238 368.684 421.402 351.173 372.403C332.376 319.795 331.685 263.021 344.184 208.934C356.549 155.462 380.933 102.72 414.725 59.4623C437.746 29.9903 463.32 2.61113 486.341 -26.8417H483.768C474.764 -15.5521 465.413 -4.66567 456.389 5.97113C440.626 24.5375 424.556 42.8351 409.656 62.1119C394.316 81.9647 382.239 103.546 371.352 126.125C348.466 173.645 333.874 225.389 333.164 278.323C332.453 331.622 348.236 383.405 375.288 429.024C399.231 469.402 429.048 506.496 456.831 544.243C484.402 581.702 511.32 619.795 533.343 660.826C555.365 701.856 571.436 746.266 575.64 792.845C579.903 840.192 569.938 887.712 551.372 931.2C543.058 950.669 532.959 969.197 521.42 986.842H524.069C572.184 913.44 591.768 825.312 568.325 739.718C544.095 651.283 483.999 577.21 430.584 504.729L430.623 504.749Z" fill="#FF9EBB"/>
<path d="M393.007 504C363.362 460.282 333.525 416.217 318.837 364.915C303.324 310.752 306.626 253.517 322.639 199.91C338.383 147.187 365.57 97.1903 401.609 55.6799C425.801 27.7823 452.066 1.63192 475.548 -26.8417H472.917C462.569 -14.5921 451.721 -2.86087 441.276 8.56313C424.956 26.3615 408.329 43.8911 392.738 62.3615C376.706 81.3695 363.727 102.048 351.957 123.936C326.709 170.861 309.641 222.451 306.607 275.827C303.554 329.51 317.321 382.349 342.799 429.389C365.628 471.552 394.697 510.528 421.538 550.176C448.169 589.497 474.031 629.549 494.421 672.518C514.831 715.565 528.463 761.914 529.327 809.779C530.191 857.433 516.693 904.454 495.228 946.694C488.143 960.633 480.137 974.016 471.343 986.88H474.069C521.609 917.145 543.132 833.03 524.277 749.472C503.637 658.022 444.578 580.128 392.969 504.038L393.007 504Z" fill="#FF9EBB"/>
<path d="M357.969 502.579C329.38 457.344 301.175 411.725 289.002 358.982C276.445 304.608 282.589 248.122 300.714 195.763C318.551 144.269 347.236 96.3455 384.273 56.5055C410.346 28.4543 438.474 2.24633 463.396 -26.8417H460.765C449.169 -13.6129 436.861 -1.05607 425.015 11.0975C408.311 28.2623 391.261 45.1007 375.172 62.8607C358.775 80.9471 345.258 100.512 332.874 121.536C305.994 167.136 286.89 217.613 281.341 270.451C275.793 323.213 286.545 375.936 309.22 423.648C330.359 468.115 359.428 509.165 385.732 550.656C411.748 591.686 437.034 633.389 456.484 678.01C475.972 722.707 488.164 770.65 486.839 819.648C485.553 867.514 469.789 914.17 446.365 955.603C440.279 966.374 433.617 976.781 426.493 986.842H429.277C476.337 920.064 499.357 839.347 484.189 757.632C466.717 663.36 408.157 581.971 357.969 502.56V502.579Z" fill="#FF9EBB"/>
<path d="M894.834 623.347C843.32 558.95 772.952 512.409 707.173 464.025C670.808 437.28 633.983 410.246 605.259 375.033C575.365 338.361 556.223 294.259 547.544 247.91C538.52 199.661 541.592 149.721 550.693 101.741C559.256 56.659 579.608 15.2638 597.195 -26.8418H594.68C592.952 -22.733 591.224 -18.6818 589.515 -14.6498C580.338 7.027 570.834 28.5694 562.539 50.611C554.207 72.7678 549.023 95.347 545.298 118.694C531.205 206.899 543.723 300.384 600.037 372.269C627.397 407.193 662.61 433.901 697.957 460.185C732.171 485.606 767.077 510.086 800.543 536.525C865.419 587.789 926.111 649.19 948.901 730.944C972.939 817.113 950.763 908.985 910.367 986.861H913.343C935.096 944.832 950.763 899.865 957.579 853.037C963.743 810.624 961.765 766.733 949.842 725.51C938.975 687.955 919.122 653.741 894.795 623.347H894.834Z" fill="#FF9EBB"/>
<path d="M850.753 631.641C801.774 564.23 733.077 513.965 669.275 461.645C633.563 432.365 597.736 402.624 571.163 364.435C543.553 324.768 527.809 278.246 522.933 230.342C517.883 180.845 524.91 130.713 537.659 82.867C547.893 44.5054 567.496 8.90861 585.198 -26.8418H582.798C581.646 -24.4802 580.494 -22.1186 579.361 -19.7762C568.744 2.131 557.742 23.8654 548.142 46.2526C539.022 67.507 532.993 89.4142 528.213 112.013C508.993 203.155 519.304 298.809 575.867 375.072C602.229 410.611 637.461 438.681 671.464 466.521C704.238 493.344 737.531 519.513 769.115 547.737C831.611 603.552 887.521 670.233 902.517 755.04C916.705 835.181 893.416 916.569 854.267 986.841H857.301C877.921 949.536 893.569 909.657 902.171 867.897C910.849 825.715 911.387 781.536 901.825 739.469C892.917 700.243 874.273 664.013 850.753 631.622V631.641Z" fill="#FF9EBB"/>
<path d="M820.341 648.249C773.704 578.246 705.64 525.485 642.626 471.149C607.336 440.717 571.72 409.92 545.647 370.867C518.363 330.009 503.502 282.355 499.874 233.549C496.11 183.091 504.827 132.326 519.304 84.115C530.978 45.2158 552.597 9.3502 571.567 -26.8418H569.167C567.016 -22.6946 564.885 -18.5666 562.773 -14.4962C551.579 7.123 540.04 28.5886 529.845 50.707C520.091 71.8846 513.467 93.8686 508.091 116.525C486.242 208.742 495.15 306.086 552.021 384.192C578.171 420.096 613.211 449.011 646.696 477.792C679.144 505.67 712.034 533.069 742.965 562.637C804.942 621.83 858.242 692.736 867.266 780.518C874.677 852.71 853.384 923.904 818.44 986.841H821.454C838.523 955.718 852.04 922.771 860.795 888.345C871.451 846.509 874.139 802.233 866.786 759.629C859.854 719.501 842.786 681.965 820.322 648.23L820.341 648.249Z" fill="#FF9EBB"/>
<path d="M791.768 662.65C747.397 590.746 680.293 535.891 618.277 479.923C583.467 448.493 548.12 416.774 522.565 377.05C495.531 335.04 481.458 286.291 479.019 236.582C476.485 185.165 486.853 133.786 503 85.1903C510.469 62.7263 522.603 41.5487 533.893 20.8319C542.552 4.93433 551.422 -10.8481 559.909 -26.8417H557.336C554.13 -20.9473 550.923 -15.1105 547.774 -9.36967C536.082 11.9807 524.024 33.1583 513.33 55.0271C503 76.1663 495.8 98.1887 489.867 120.941C465.522 214.31 473.24 313.325 530.686 393.216C556.626 429.293 591.32 458.918 624.19 488.467C656.158 517.21 688.491 545.606 718.674 576.25C779.365 637.882 829.438 711.437 833.874 800.371C837.157 865.997 817.534 929.722 785.97 986.842H788.85C803.038 960.768 814.693 933.37 823.083 904.838C835.218 863.674 840.056 819.11 834.104 776.467C828.421 735.706 813.291 697.536 791.73 662.63L791.768 662.65Z" fill="#FF9EBB"/>
<path d="M754.181 684.979C713.573 609.485 647.583 550.925 586.93 491.904C552.792 458.707 517.906 425.242 493.311 384.077C467.026 340.09 454.661 289.555 454.469 238.522C454.258 186.413 466.085 130.79 487.282 83.136C504.408 44.64 528.619 9.63836 549.701 -26.8608H547.224C542.347 -18.528 537.413 -10.3296 532.594 -2.26564C520.095 18.624 507.231 39.3216 495.691 60.768C484.383 81.792 476.299 103.834 469.445 126.682C455.199 174.144 448.632 224.198 453.989 273.619C459.173 321.485 477.163 366.835 504.754 406.157C530.405 442.694 564.466 473.568 596.415 504.48C627.768 534.835 659.314 565.056 688.306 597.734C747.154 664.09 791.256 742.675 787.051 833.837C784.555 888.058 767.314 939.706 741.336 986.861H744.101C753.912 968.774 762.495 950.016 769.56 930.662C784.594 889.517 791.967 845.069 789.183 801.293C786.572 760.358 773.515 720.96 754.162 684.998L754.181 684.979Z" fill="#FF9EBB"/>
<path d="M717.753 701.683C679.871 623.827 614.994 562.521 555.647 501.101C522.124 466.406 487.832 431.443 464.37 388.896C439.218 343.258 428.754 291.398 430.732 239.578C432.728 187.123 446.802 131.213 470.533 84.3071C490.156 45.5231 516.325 10.3871 538.732 -26.8417H536.312C529.669 -15.9937 522.796 -5.39528 516.152 4.97272C503 25.4591 489.503 45.7535 477.311 66.8351C465.234 87.7055 456.44 109.709 448.837 132.557C432.94 180.307 424.914 230.957 429.311 281.261C433.573 330.182 451.295 376.685 478.924 417.101C504.191 454.061 537.503 485.933 568.607 517.939C599.327 549.542 630.104 581.165 657.983 615.341C685.88 649.536 710.552 686.822 726.738 728.045C743.192 769.958 748.607 815.04 743.404 859.699C738.143 904.781 723.09 947.443 701.586 986.88H704.293C710.917 974.573 716.965 961.939 722.341 948.998C739.122 908.602 748.434 864.691 747.82 820.896C747.224 779.366 735.858 738.893 717.753 701.702V701.683Z" fill="#FF9EBB"/>
<path d="M1126.03 519.418C1065.89 467.386 989.513 438.125 916.438 409.421C877.712 394.214 838.179 379.718 801.277 360.365C761.59 339.552 727.165 309.83 701.168 273.331C650.115 201.696 633.008 105.446 643.529 19.3151C645.411 3.89753 647.715 -11.4625 650 -26.8417H647.677C644.701 -6.85448 641.629 13.1135 639.536 33.1967C637.174 55.7567 637.712 77.9327 639.785 100.512C647.408 183.61 677.936 264.73 740.95 321.542C772.323 349.824 809.686 368.333 848.297 384.614C885.776 400.416 923.888 414.566 961.52 429.965C1036.09 460.474 1112.07 497.338 1163.47 561.562C1220.53 632.87 1232.82 728.928 1219.4 816.941C1210.37 876.096 1190.21 933.523 1162.41 986.842H1164.94C1205.19 909.254 1230.43 821.434 1226.56 733.632C1222.89 650.707 1189.06 573.926 1126.03 519.398V519.418Z" fill="#FF9EBB"/>
<path d="M1149.35 629.242C1133.6 593.434 1109.32 562.118 1080.63 535.757C1021.52 481.402 945.714 448.838 873.445 416.102C835.909 399.091 797.336 382.637 762.373 360.691C724.395 336.845 692.619 304.301 669.656 265.805C647.365 228.422 634.635 186.106 628.28 143.251C624.824 119.904 623.557 96.2495 623.595 72.6527C623.634 49.0175 627.723 25.7279 632.139 2.57273C634.002 -7.23848 635.999 -17.0497 637.995 -26.8417H635.557C631.563 -7.08487 627.531 12.6719 624.517 32.6207C621.234 54.2975 620.792 75.8207 621.695 97.7087C625.112 181.69 651.973 264.768 712.875 324.73C743.576 354.97 780.978 375.245 819.474 393.754C856.165 411.398 893.586 427.45 930.392 444.864C1003.14 479.328 1076.81 520.685 1123.7 588.288C1175.85 663.475 1181.74 760.339 1162.85 847.507C1152.34 895.968 1134.39 942.835 1110.95 986.842H1113.43C1151.63 914.938 1176.27 834.221 1175.27 752.602C1174.75 710.4 1166.4 667.91 1149.39 629.222L1149.35 629.242Z" fill="#FF9EBB"/>
<path d="M1035.74 563.904C978.563 507.437 904.336 471.571 833.699 435.226C796.758 416.218 758.684 397.632 724.988 373.133C688.374 346.483 658.844 311.251 638.646 270.777C618.505 230.419 608.828 185.53 605.756 140.736C604.163 117.446 604.604 94.0415 606.256 70.7903C607.926 47.3471 614.704 23.7695 620.368 1.05592C622.652 -8.08328 625.129 -17.3953 627.625 -26.8417H624.956C619.177 -3.87848 613.091 19.0079 608.406 42.2399C604.028 63.9167 602.55 85.5359 602.377 107.635C601.705 192.941 625.379 278.285 685.014 341.299C714.774 372.749 751.753 394.464 789.539 414.835C825.424 434.169 862.038 452.083 897.904 471.437C968.752 509.683 1039.7 555.379 1081.97 626.016C1129.36 705.197 1128.48 803.309 1103.8 889.728C1094.24 923.232 1081.11 955.737 1065.1 986.861H1067.61C1100.08 923.865 1121.3 854.515 1123 783.725C1124.04 740.774 1116.92 697.152 1100.44 657.408C1085.78 622.003 1062.91 590.746 1035.74 563.923V563.904Z" fill="#FF9EBB"/>
<path d="M986.207 582.797C930.201 524.006 856.684 485.165 787.142 444.979C748.991 422.938 709.919 401.069 677.567 370.81C644.447 339.84 619.967 300.902 604.991 258.221C589.862 215.136 585.196 168.979 586.463 123.514C587.135 99.6288 589.631 76.1471 595.123 52.8576C600.729 29.1648 608.044 5.89436 614.879 -17.4528C615.801 -20.5632 616.723 -23.712 617.644 -26.8608H615.129C614.265 -23.9232 613.42 -21.0048 612.575 -18.0864C605.759 5.27996 598.54 28.5504 592.819 52.224C587.577 73.8816 585.273 95.616 584.275 117.85C580.358 204.384 601.67 291.667 660.729 357.082C690.124 389.645 727.257 412.493 764.678 434.611C800.255 455.654 836.486 475.584 871.641 497.318C941.126 540.269 1007.88 592.627 1042.25 668.89C1080.9 754.656 1071.07 854.918 1039.83 941.222C1034.23 956.678 1027.89 971.904 1020.86 986.842H1023.51C1050.03 930.662 1067.04 869.952 1069.52 807.994C1071.24 764.486 1064.95 720.115 1049.22 679.43C1035.23 643.162 1012.93 610.829 986.227 582.778L986.207 582.797Z" fill="#FF9EBB"/>
<path d="M763.93 464.947C726.298 441.293 687.187 418.253 654.97 387.322C621.965 355.603 597.811 315.955 583.469 272.582C569.05 228.998 565.402 182.496 567.802 136.858C569.069 112.877 572.045 89.2223 578.15 65.9903C584.314 42.5471 592.301 19.6031 599.846 -3.41768C602.362 -11.1169 604.973 -18.9313 607.507 -26.8417H604.954C602.803 -20.1217 600.614 -13.4785 598.483 -6.93127C590.938 16.2239 583.008 39.2447 576.538 62.7263C570.586 84.2879 567.629 106.042 565.939 128.333C559.334 215.386 578.4 303.84 636.346 371.155C665.261 404.736 702.374 428.659 739.373 452.275C774.643 474.778 810.432 496.454 844.896 520.186C913.978 567.782 977.241 626.458 1004.66 707.962C1035.01 798.182 1016.04 893.933 974.458 977.146C972.826 980.39 971.174 983.616 969.485 986.842H972.442C995.424 943.085 1012.17 896.218 1019.17 847.392C1031.1 764.333 1008.31 680.275 955.853 614.938C904.608 551.098 832.282 507.917 763.91 464.947H763.93Z" fill="#FF9EBB"/>
<path d="M1177.5 483.706C1113.46 434.861 1033.75 411.245 957.753 388.282C918.662 376.474 879.071 365.318 841.19 349.997C800.025 333.331 763.026 307.526 733.593 274.272C676.185 209.453 648.594 115.2 650.898 29.6447C651.417 10.7903 652.722 -8.02567 653.99 -26.8417H651.724C649.017 15.4367 646.502 56.7935 653.567 98.9759C667.295 180.864 703.334 259.43 769.689 311.597C802.751 337.594 840.882 353.434 880.415 366.701C919.103 379.68 958.406 390.682 997.324 402.931C1074.57 427.277 1153.96 457.325 1211.33 516.902C1273.69 581.664 1294.98 674.093 1290.26 761.683C1286.03 839.942 1262.11 917.03 1226.19 986.842H1228.86C1234.56 975.59 1239.94 964.224 1244.98 952.742C1280.97 870.893 1300.93 779.213 1290.68 689.722C1281.33 608.026 1243.26 533.837 1177.52 483.686L1177.5 483.706Z" fill="#FF9EBB"/>
<path d="M1339.09 292.838C1259.98 260.237 1171.39 259.277 1087.22 256.09C1043.25 254.419 998.211 253.843 955.088 244.454C912.54 235.2 872.758 215.942 838.851 188.678C805.52 161.875 778.985 127.526 757.865 90.5281C746.345 70.3489 736.63 49.1521 728.105 27.5521C721.232 10.1185 717.104 -8.44795 713.321 -26.8416H710.883C715.817 -3.76315 721.808 19.0273 730.966 40.9345C762.742 117.005 814.064 186.163 889.001 223.776C965.84 262.33 1056.04 256.704 1139.62 260.602C1225.39 264.595 1315.57 273.504 1389.18 321.792C1419.63 341.76 1444.53 367.699 1464.46 397.19V393.562C1433.19 349.421 1390.91 314.208 1339.11 292.858L1339.09 292.838Z" fill="#FF9EBB"/>
<path d="M1464.45 910.579C1453.23 932.371 1440.46 953.338 1426.01 973.114C1425.09 974.362 1427.18 975.571 1428.08 974.323C1441.64 955.795 1453.73 936.211 1464.45 915.898V910.579Z" fill="#FF9EBB"/>
<path d="M1308.15 326.342C1232.64 290.649 1146.6 284.582 1064.62 277.286C1021.4 273.446 977.22 270.72 934.961 260.429C892.701 250.137 853.36 230.169 820.087 202.195C754.404 146.995 713.527 61.9006 699.972 -21.7154C699.703 -23.4242 699.434 -25.133 699.185 -26.8418H696.746C700.528 -2.957 705.367 20.6974 713.585 43.603C741.233 120.672 788.484 191.961 860.618 233.51C934.327 275.981 1023.4 275.539 1105.78 283.469C1190.03 291.571 1278.31 303.955 1349.74 352.877C1408.14 392.87 1444.99 454.809 1464.44 521.664V512.525C1439.31 431.174 1385.66 362.995 1308.15 326.361V326.342Z" fill="#FF9EBB"/>
<path d="M1464.44 790.733C1458.95 813.12 1452.27 835.181 1444.57 856.685C1428.13 902.592 1406.09 947.021 1377.77 986.861H1380.73C1420.22 930.931 1447.43 866.381 1464.44 800.141V790.733Z" fill="#FF9EBB"/>
<path d="M1281.06 371.366C1208.16 331.718 1123.08 321.082 1042.12 309.811C1000.47 304.013 958.039 299.174 917.355 288.23C875.115 276.864 835.947 255.974 803.134 227.059C738.526 170.093 699.473 82.1951 689.47 -2.34247C688.51 -10.5025 687.684 -18.6817 686.897 -26.8417H684.555C687.377 2.87992 691.179 32.3903 700.068 61.1519C724.241 139.334 768.497 212.39 838.846 256.8C910.712 302.17 999.934 305.779 1081.78 317.856C1163.61 329.933 1248.84 346.56 1316.71 396.883C1390.1 451.296 1426.23 540.826 1434.95 629.472C1444.03 721.67 1425.77 816.326 1391.19 901.747C1379.31 931.104 1365.08 959.75 1348.41 986.842H1351.31C1381.25 937.939 1403.25 883.968 1418.3 829.018C1441.76 743.347 1448.12 650.534 1425.98 563.923C1405.11 482.246 1355.63 411.898 1281.06 371.347V371.366Z" fill="#FF9EBB"/>
<path d="M1239.48 405.562C1167.54 363.974 1083.04 350.246 1002.51 335.117C960.562 327.245 917.516 320.314 877.445 305.184C837.029 289.92 800.837 265.21 771.423 233.645C741.932 202.003 720.408 163.661 704.741 123.552C696.62 102.758 690.284 81.312 685.042 59.616C679.762 37.7472 678.591 14.8224 677.285 -7.58404C676.901 -14.016 676.575 -20.4288 676.248 -26.8608H673.887C675.711 8.73596 677.996 44.0448 687.48 78.7392C709.042 157.651 751.032 231.878 820.018 278.304C855.749 302.362 895.954 315.398 937.676 324.614C978.898 333.715 1020.56 340.589 1061.94 348.941C1143.83 365.472 1228.21 388.608 1291.42 446.227C1359.15 507.994 1388.68 601.114 1392.62 690.528C1396.73 784.051 1374.26 878.976 1334 963.11C1330.18 971.098 1326.15 979.008 1321.93 986.822H1324.77C1344.89 949.286 1360.67 909.331 1372.44 868.723C1397.3 783.014 1404.16 689.894 1382.71 602.726C1362.38 520.032 1313.65 448.397 1239.46 405.504L1239.48 405.562Z" fill="#FF9EBB"/>
<path d="M1222.93 448.8C1155.77 400.781 1072.61 381.677 993.488 363.552C951.939 354.048 909.258 345.984 869.13 331.373C828.195 316.454 791.216 292.205 761.168 260.698C701.014 197.606 670.275 106.81 666.877 20.9279C666.243 5.01112 666.013 -10.9249 665.686 -26.8417H663.363C664.227 14.8799 664.592 56.1023 674.614 96.9407C694.102 176.371 734.384 251.405 802.275 299.328C837.565 324.23 877.501 337.997 919.011 348.518C959.946 358.886 1001.32 367.392 1042.29 377.568C1123.26 397.69 1205.23 425.971 1264.3 487.661C1393.75 622.886 1352.62 835.277 1273.73 986.861H1276.55C1287.52 965.625 1297.4 943.891 1306.2 921.869C1339.11 839.52 1358.46 747.053 1346.25 658.349C1334.73 574.656 1292.09 498.221 1222.95 448.8H1222.93Z" fill="#FF9EBB"/>
<path d="M1127.83 220.646C1082.96 223.776 1037.13 228.096 992.299 222.758C948.235 217.517 906.148 201.466 869.342 176.832C832.248 151.987 801.72 118.368 776.664 81.6767C763.953 63.0719 751.78 43.2575 742.564 22.6559C735.384 6.64313 729.796 -10.0801 724.536 -26.8417H721.848C729.182 -3.68647 737.438 19.1231 748.939 40.5119C788.875 114.739 848.184 179.981 928.593 209.914C970.276 225.427 1013.82 228.442 1057.91 227.002C1103.22 225.523 1148.39 221.203 1193.67 218.746C1283.54 213.83 1378.83 216.038 1457.25 265.862C1459.68 267.418 1462.08 268.992 1464.47 270.624V268.666C1442.98 253.824 1419.35 241.824 1393.67 233.376C1308.52 205.286 1215.63 214.56 1127.85 220.666L1127.83 220.646Z" fill="#FF9EBB"/>
<path d="M1173.52 65.011C1124.79 80.5246 1076.26 92.275 1024.74 87.859C977.107 83.7694 931.776 66.0478 891.628 40.5694C862.502 22.0798 834.604 -0.864197 810.835 -26.8418H808.051C808.55 -26.3042 809.03 -25.7474 809.529 -25.229C872.832 41.7982 955.737 90.931 1049.93 91.3918C1100.14 91.6414 1148.08 76.0126 1195.28 60.4798C1246.29 43.6798 1296.84 25.3246 1349.03 12.3262C1386.76 2.9182 1425.6 -3.2258 1464.44 -2.72659V-5.3186C1364.16 -7.2962 1267.35 35.1358 1173.54 65.011H1173.52Z" fill="#FF9EBB"/>
<path d="M1166.35 88.6847C1118 101.779 1069.71 113.184 1019.27 109.19C972.714 105.504 928.266 88.8575 888.906 64.1279C851.37 40.5311 815.946 8.60149 788.548 -26.8225H785.898C787.934 -24.2113 790.007 -21.6193 792.158 -19.0657C850.161 49.8623 927.69 103.43 1019.27 111.609C1067.74 115.929 1114.58 104.966 1161.09 92.6015C1211.08 79.3151 1260.5 63.9167 1311.04 52.7231C1361.05 41.6255 1412.57 35.0399 1463.75 40.7615C1463.98 40.7807 1464.22 40.8191 1464.45 40.8575V38.4575C1464.22 38.4383 1463.98 38.3999 1463.75 38.3615C1362.76 26.0735 1262.27 62.7263 1166.35 88.7231V88.6847Z" fill="#FF9EBB"/>
<path d="M1165 123.226C1117.29 133.901 1069.19 144.422 1020 140.794C974.361 137.434 930.604 121.805 891.858 97.7855C851.942 73.0559 818.188 39.3023 789.311 2.53433C781.938 -6.85447 775.314 -16.7041 769.151 -26.8417H766.367C772.262 -17.0305 778.617 -7.46887 785.644 1.67033C839.231 71.4431 912.191 127.546 1000.91 141.024C1046.8 147.994 1091.85 141.043 1136.83 131.75C1185.64 121.67 1233.93 109.171 1282.94 99.9935C1331.79 90.8351 1381.73 85.2095 1431.4 90.0095C1442.57 91.0847 1453.59 92.8511 1464.44 95.2127V92.8127C1460.2 91.8911 1455.92 91.0271 1451.6 90.2975C1355.69 74.0735 1257.91 102.451 1165.02 123.226H1165Z" fill="#FF9EBB"/>
<path d="M1189.46 -26.8416C1156.17 -11.2512 1121.76 0.97916 1084.32 4.97276C1030.81 10.6752 977.203 -1.07524 928.512 -23.0784C925.805 -24.3072 923.117 -25.5552 920.448 -26.8416H915.168C942.547 -13.2288 971.443 -2.78404 1001.49 3.28316C1051.2 13.3248 1102.48 9.00476 1150.33 -7.37284C1166.19 -12.8064 1181.66 -19.488 1196.89 -26.8608H1189.46V-26.8416Z" fill="#FF9EBB"/>
<path d="M1236.27 -26.8417C1229.36 -23.4817 1222.47 -20.1601 1215.59 -16.8961C1166.1 6.48953 1116.52 26.5151 1061.09 28.3967C1009.14 30.1631 958.18 15.6671 912.292 -8.00647C901.118 -13.7665 890.231 -20.0641 879.633 -26.8225H875.793C947.121 19.3919 1030.6 42.7583 1116.1 23.7503C1160.11 13.9583 1201.56 -6.75847 1242.05 -26.8225H1236.23L1236.27 -26.8417Z" fill="#FF9EBB"/>
<path d="M1323.59 -26.8417C1278.36 -8.87047 1234.05 11.9999 1189.9 29.5679C1140.79 49.1135 1091.35 62.4959 1038.01 58.9247C987.767 55.5647 939.825 37.1519 897.201 10.9823C878.807 -0.307272 861.489 -12.9601 845.322 -26.8417H841.578C911.62 32.8511 1000.44 72.2687 1094.02 59.6735C1145.78 52.7039 1193.97 31.0079 1241.63 10.6943C1271.62 -2.09287 1301.59 -15.1105 1332.02 -26.8225H1323.59V-26.8417Z" fill="#FF9EBB"/>
<path d="M1141.08 158.649C1092.71 167.001 1044.56 174.317 995.598 166.637C951.918 159.782 910.906 141.581 874.964 116.121C836.334 88.7615 804.308 52.7999 777.274 14.1887C768.212 1.22869 760.474 -12.5953 753.447 -26.8225H751.066C758.65 -11.3857 766.983 3.64789 776.871 17.7791C826.599 88.8191 895.604 147.878 982.004 166.56C1026.66 176.217 1071.23 172.262 1115.9 165.273C1164.31 157.709 1212.29 147.667 1260.81 140.793C1309.86 133.824 1359.9 130.31 1409.18 137.126C1428.14 139.757 1446.62 144.192 1464.46 150.374V148.089C1451.33 143.462 1437.74 139.776 1423.72 137.107C1329.95 119.174 1233.39 142.752 1141.1 158.688L1141.08 158.649Z" fill="#FF9EBB"/>
<path d="M1161.6 184.8C1113.6 191.501 1064.68 200.352 1016.06 196.819C971.116 193.555 927.839 178.79 889.535 155.213C850.329 131.078 817.459 97.7086 789.887 61.1134C776.486 43.315 764.179 24.7678 754.406 4.723C749.356 -5.6258 744.748 -16.205 740.332 -26.8418H737.625C746.783 -4.781 756.844 16.8382 769.919 36.8254C817.055 108.864 883.564 169.728 968.543 191.52C1013.43 203.021 1058.57 200.448 1104.1 194.918C1152.42 189.043 1200.48 181.017 1248.94 176.313C1296.92 171.686 1345.61 170.649 1393.19 179.462C1418.02 184.051 1441.9 191.789 1464.42 202.406V199.68C1456.47 195.936 1448.29 192.537 1439.92 189.504C1350.82 157.363 1252.9 172.032 1161.58 184.781L1161.6 184.8Z" fill="#FF9EBB"/>
<path d="M325.343 500.256C297.771 453.85 271.275 407.04 261.464 353.261C251.557 298.886 260.139 243.168 280.031 192.058C299.595 141.773 329.451 95.7695 367.237 57.4271C395 29.2415 425.163 3.01432 451.218 -26.8417H448.415C435.666 -12.6529 421.938 0.671926 408.747 13.5551C391.755 30.1631 374.418 46.4063 357.944 63.5327C341.336 80.7935 327.397 99.3215 314.552 119.539C285.848 164.698 264.709 215.098 257.413 268.32C250.482 318.912 258.104 371.078 278.322 417.907C298.251 464.102 326.514 506.842 352.299 549.907C378.143 593.069 403.371 636.845 422.13 683.635C440.293 728.909 450.987 777.177 448.127 826.118C445.304 874.157 427.909 920.563 403.026 961.402C397.707 970.138 392.005 978.624 385.976 986.861H388.818C435.858 922.08 459.935 843.494 447.263 762.873C432.114 666.49 374.111 582.393 325.323 500.256H325.343Z" fill="#FF9EBB"/>
<path d="M341.248 60.5951C371.661 31.4495 404.397 4.53112 432.563 -26.8417H429.933C415.36 -10.8865 399.29 3.82072 383.949 17.9711C366.477 34.0799 348.698 49.8239 331.725 66.4703C314.79 83.0975 300.429 101.069 287.104 120.73C257.555 164.314 235.168 213.139 225.933 265.171C216.966 315.744 222.918 367.488 240.89 415.43C258.438 462.221 285.971 505.709 310.374 549.139C335.469 593.798 360.026 638.995 377.862 687.11C395.142 733.69 404.627 783.11 400 832.838C395.526 880.973 376.384 926.976 349.984 967.123C345.549 973.862 340.883 980.448 336.026 986.861H338.886C385.869 924.345 411.885 847.411 401.114 768.384C387.654 669.619 331.648 583.315 284.339 497.837C257.69 449.683 232.864 401.107 226.029 345.734C219.366 291.859 230.483 237.6 252.141 188.237C273.203 140.237 303.462 96.7679 341.248 60.5567V60.5951Z" fill="#FF9EBB"/>
<path d="M310.792 65.0111C344.622 34.5791 381.083 6.83512 411.86 -26.8417H409.23C392.833 -9.00488 374.171 7.04632 356.449 22.4063C321.102 53.0303 285.524 81.8495 257.55 119.712C226.945 161.146 202.868 207.782 190.945 258.067C179.464 306.432 181.633 356.813 195.649 404.39C210.03 453.216 236.776 498.701 260.2 543.609C284.488 590.169 308.564 637.094 325.806 686.822C342.472 734.899 351.284 785.741 345.275 836.563C339.534 885.139 318.798 931.142 290.843 970.886C287.003 976.339 282.99 981.677 278.862 986.899H281.78C298.696 965.241 313.096 941.76 324.75 916.666C345.928 871.046 353.166 820.8 347.905 770.938C337.345 670.656 281.435 581.088 236.737 493.056C211.854 444.058 190.043 394.829 186.356 339.264C182.862 286.483 196.225 234.24 219.208 187.008C241.672 140.813 272.68 99.3407 310.811 65.0495L310.792 65.0111Z" fill="#FF9EBB"/>
<path d="M388.299 -26.8416C370.731 -7.56484 350.111 9.36956 330.45 25.44C294.315 54.9888 257.087 82.4064 227.749 119.098C166.059 196.186 130.271 291.898 150.949 390.778C161.49 441.235 186.623 488.333 208.875 534.394C232.319 582.931 256.011 631.546 272.965 682.81C289.611 733.19 298.328 786.451 290.84 839.347C283.986 887.712 262.347 933.062 233.49 972.096C229.765 977.126 225.906 982.022 221.951 986.842H224.85C272.562 928.224 300.44 855.898 295.333 778.56C288.555 675.437 233.279 582.048 190.597 490.464C167.538 441.005 148.28 391.469 147.032 336.211C145.861 284.659 160.683 234.278 184.453 188.909C207.819 144.326 239.327 104.102 277.611 71.4816C313.381 40.992 351.992 13.7472 384.805 -20.1024C386.955 -22.3104 389.067 -24.576 391.141 -26.8608H388.319L388.299 -26.8416Z" fill="#FF9EBB"/>
<path d="M365.841 -26.8417C346.084 -4.56968 321.719 14.2463 298.679 31.9871C263.005 59.4623 226.007 84.9599 196.477 119.309C133.29 192.806 93.5271 285.274 108.273 383.328C115.991 434.611 139.3 482.611 160.285 529.536C182.711 579.706 205.751 629.779 221.975 682.387C237.911 734.074 245.841 788.544 236.989 842.304C228.849 891.706 205.252 937.651 174.282 976.589C171.498 980.083 168.657 983.501 165.757 986.88H168.849C183.844 969.273 197.169 950.227 208.324 929.933C233.649 883.814 245.245 832.973 242.845 780.461C238.007 675.264 183.421 579.11 143.082 484.339C121.885 434.515 105.738 384.557 107.485 329.76C109.079 279.034 126.071 230.208 151.281 186.547C176.087 143.558 208.381 105.485 247.089 74.5343C283.434 45.4847 322.353 19.5071 355.684 -13.1329C360.177 -17.5297 364.516 -22.0993 368.701 -26.8225H365.86L365.841 -26.8417Z" fill="#FF9EBB"/>
<path d="M341.804 -26.8416C320.799 -2.43844 293.881 17.5488 268.556 36.2688C232.402 63.0144 194.962 87.744 164.799 121.459C100.133 193.728 58.3734 285.638 71.4102 384.038C78.1302 434.746 99.9414 482.4 119.717 529.094C141.433 580.339 163.858 631.469 179.237 685.075C194.367 737.76 201.183 793.094 190.738 847.315C181.234 896.563 156.313 941.971 124.268 980.141C122.348 982.425 120.389 984.653 118.431 986.861H121.618C136.402 969.984 149.593 951.725 160.805 932.237C187.359 886.061 199.858 834.778 198.13 781.594C194.636 673.997 139.666 575.232 100.959 477.312C81.5286 428.16 68.2422 378.662 71.9286 325.344C75.3846 275.098 93.9126 227.213 120.178 184.627C146.578 141.83 180.197 104.986 220.172 74.688C256.613 47.0784 295.244 22.0608 328.383 -9.65764C334.085 -15.1296 339.596 -20.8512 344.761 -26.8608H341.823L341.804 -26.8416Z" fill="#FF9EBB"/>
<path d="M321.041 -26.8417C298.346 1.28627 267.127 23.0207 238.001 43.2575C201.214 68.7935 163.159 92.3135 132.113 124.934C66.948 193.382 22.5192 281.337 29.8728 377.683C33.7896 429.005 53.6424 477.504 72.036 525.024C91.7928 576.038 112.51 626.822 126.89 679.699C141.271 732.576 148.068 787.949 137.93 842.208C128.58 892.301 103.351 938.227 70.4616 976.723C67.524 980.16 64.5096 983.52 61.4568 986.842H64.644C78.6024 971.578 91.2552 955.123 102.257 937.555C130.385 892.646 144.919 842.131 145.322 789.197C146.148 681.542 94.3272 580.857 58.3656 482.016C40.5864 433.152 28.1832 384.23 32.292 331.814C36.132 282.912 54.3144 236.333 80.1384 194.976C106.289 153.12 140.119 115.545 179.902 86.3615C216.766 59.3279 256.145 35.8079 291.108 6.22067C302.954 -3.82093 314.282 -14.7265 324.017 -26.8801H321.041V-26.8417Z" fill="#FF9EBB"/>
<path d="M295.832 -26.8417C272.158 5.49112 236.6 28.7807 203.556 50.2463C166.635 74.2463 128.004 96.0959 96.2668 127.008C29.7004 191.866 -18.2804 276.326 -16.5524 371.309C-15.6308 422.074 1.36116 470.342 17.854 517.786C35.7292 569.165 55.006 620.102 68.5228 672.864C82.0396 725.625 88.8556 780.691 79.486 834.739C70.6156 885.869 45.4444 932.563 11.8444 971.635C7.35156 976.877 2.64756 981.907 -2.15244 986.861H1.13076C14.8588 972.576 27.3964 957.139 38.4556 940.666C67.7932 896.928 83.902 847.238 86.1292 794.649C90.622 687.782 42.6604 585.965 9.84756 486.758C-6.29964 437.933 -17.7236 389.242 -12.866 337.497C-8.35404 289.478 10.0012 243.917 35.9212 203.578C62.1676 162.72 96.5164 125.088 136.222 96.9983C173.7 70.4831 214.097 48.3647 250.616 20.4287C268.472 6.75833 285.598 -8.56327 298.827 -26.8417H295.87L295.832 -26.8417Z" fill="#FF9EBB"/>
<path d="M-24.4414 511.046C-23.9998 512.352 -23.5774 513.677 -23.155 514.982C-6.33581 565.997 12.0578 616.531 25.0946 668.717C38.1314 720.941 45.0434 775.296 36.5378 828.806C28.781 877.632 6.39379 922.445 -24.4414 960.672V963.974C13.6514 917.165 38.3618 860.813 42.2594 798.451C48.6146 696.633 6.68179 598.406 -24.4414 503.27V511.046Z" fill="#FF9EBB"/>
<path d="M267.821 -26.8417C243.744 7.91032 205.767 31.9487 170.631 54.0671C133.402 77.5103 94.5026 98.7647 62.3426 129.158C26.861 162.701 -3.571 201.734 -24.4414 245.03V249.6C-18.2782 236.41 -11.2126 223.622 -3.41741 211.315C22.4258 170.534 56.9666 132.134 96.3842 104.141C133.632 77.6831 174.279 56.3903 211.469 29.7983C233.645 13.9391 255.226 -4.12808 270.682 -26.8225H267.802L267.821 -26.8417Z" fill="#FF9EBB"/>
<path d="M241.671 -26.8417C216.903 9.58072 176.583 33.3887 139.335 55.1423C101.933 76.9727 62.4962 96.4223 29.6642 125.05C10.0802 142.118 -8.179 160.781 -24.4414 180.922V183.878C-2.419 155.962 23.7122 130.31 51.9554 110.266C88.3394 84.4223 129.005 65.0687 166.771 41.4335C195.898 23.2127 225.293 2.16953 244.589 -26.8225H241.671V-26.8417Z" fill="#FF9EBB"/>
<path d="M213.773 -19.2002C185.107 14.131 142.407 32.8702 102.816 49.7662C62.4962 66.9694 20.1602 81.235 -16.531 105.715C-19.1806 107.481 -21.8302 109.305 -24.4414 111.129V114.029C-11.0398 104.64 2.8802 96.0958 17.6258 88.8574C38.1506 78.7774 59.4434 70.3294 80.5826 61.6318C127.834 42.1822 181.267 22.3102 215.482 -17.4914C216.48 -18.6626 214.791 -20.3714 213.792 -19.181L213.773 -19.2002Z" fill="#FF9EBB"/>
<path d="M204.154 -20.3906C170.746 9.42699 124.877 22.291 82.637 33.9454C46.8482 43.8142 9.94579 51.5518 -24.4414 65.779V68.1022C-6.20141 60.1342 13.5362 55.0078 32.621 49.7854C64.6082 41.0302 96.9026 33.3118 128.314 22.5982C156.019 13.1326 183.783 0.998196 205.843 -18.6818C206.995 -19.7186 205.306 -21.4082 204.154 -20.3714V-20.3906Z" fill="#FF9EBB"/>
<path d="M171.744 -23.0208C134.688 2.4576 87.3986 9.4848 43.853 15.744C21.1202 19.008 -1.78541 21.5424 -24.4414 25.248V27.6672C-23.5966 27.5328 -22.7518 27.3792 -21.9262 27.2448C13.229 21.7344 48.6914 18.2976 83.6738 11.6352C114.72 5.7216 146.592 -2.8416 172.954 -20.9472C174.221 -21.8112 173.031 -23.904 171.744 -23.0208Z" fill="#FF9EBB"/>
</g>
</g>
</svg>
