<svg width="1440" height="231" viewBox="0 0 1440 231" fill="none" xmlns="http://www.w3.org/2000/svg">
<g clip-path="url(#clip0_2044_224)">
<path fill-rule="evenodd" clip-rule="evenodd" d="M1588.15 -739.757V59.575C1588.15 64.3441 1583.26 68.8418 1574.93 71.7261L1567.98 74.1249C1560.16 76.8307 1549.36 76.8307 1541.53 74.1249L1534.59 71.7261C1526.76 69.0203 1515.96 69.0203 1508.13 71.7261L1501.19 74.1249C1493.36 76.8307 1482.56 76.8307 1474.74 74.1249L1467.79 71.7261C1459.97 69.0203 1449.16 69.0203 1441.34 71.7261L1434.39 74.1249C1426.57 76.8307 1415.77 76.8307 1407.94 74.1249L1401 71.7261C1393.17 69.0203 1382.37 69.0203 1374.54 71.7261L1367.6 74.1249C1359.77 76.8307 1348.97 76.8307 1341.15 74.1249L1334.2 71.7261C1326.38 69.0203 1315.57 69.0203 1307.75 71.7261L1300.8 74.1249C1292.98 76.8307 1282.18 76.8307 1274.35 74.1249L1267.4 71.7261C1259.58 69.0203 1248.78 69.0203 1240.95 71.7261L1234.01 74.1249C1226.18 76.8307 1215.38 76.8307 1207.56 74.1249L1200.61 71.7261C1192.78 69.0203 1181.98 69.0203 1174.16 71.7261L1167.21 74.1249C1159.39 76.8307 1148.58 76.8307 1140.76 74.1249L1133.81 71.7261C1125.99 69.0203 1115.19 69.0203 1107.36 71.7261L1100.42 74.1249C1092.59 76.8307 1081.79 76.8307 1073.96 74.1249L1067.02 71.7261C1059.19 69.0203 1048.39 69.0203 1040.57 71.7261L1033.62 74.1249C1025.8 76.8307 1014.99 76.8307 1007.17 74.1249L1000.22 71.7261C992.398 69.0203 981.596 69.0203 973.771 71.7261L966.832 74.1249C959.007 76.8307 948.206 76.8307 940.381 74.1249L933.434 71.7261C925.61 69.0203 914.808 69.0203 906.983 71.7261L900.044 74.1249C892.219 76.8307 881.417 76.8307 873.593 74.1249L866.646 71.7261C858.821 69.0203 848.02 69.0203 840.195 71.7261L833.255 74.1249C825.431 76.8307 814.629 76.8307 806.804 74.1249L799.858 71.7261C792.033 69.0203 781.231 69.0203 773.407 71.7261L766.467 74.1249C758.642 76.8307 747.841 76.8307 740.016 74.1249L733.069 71.7261C725.245 69.0203 714.443 69.0203 706.618 71.7261L699.679 74.1249C691.854 76.8307 681.052 76.8307 673.228 74.1249L666.281 71.7261C658.456 69.0203 647.655 69.0203 639.83 71.7261L632.891 74.1249C625.066 76.8307 614.264 76.8307 606.439 74.1249L599.493 71.7261C591.668 69.0203 580.866 69.0203 573.042 71.7261L566.102 74.1249C558.278 76.8307 547.476 76.8307 539.651 74.1249L532.705 71.7261C524.88 69.0203 514.078 69.0203 506.253 71.7261L499.314 74.1249C491.489 76.8307 480.688 76.8307 472.863 74.1249L465.916 71.7261C458.092 69.0203 447.29 69.0203 439.465 71.7261L432.526 74.1249C424.701 76.8307 413.899 76.8307 406.074 74.1249L399.128 71.7261C391.303 69.0203 380.501 69.0203 372.677 71.7261L365.737 74.1249C357.913 76.8307 347.111 76.8307 339.286 74.1249L332.34 71.7261C324.515 69.0203 313.713 69.0203 305.888 71.7261L298.949 74.1249C291.124 76.8307 280.323 76.8307 272.498 74.1249L265.551 71.7261C257.727 69.0203 246.925 69.0203 239.1 71.7261L232.161 74.1249C224.336 76.8307 213.534 76.8307 205.71 74.1249L198.763 71.7261C190.938 69.0203 180.137 69.0203 172.312 71.7261L165.372 74.1249C157.548 76.8307 146.746 76.8307 138.921 74.1249L131.975 71.7261C124.15 69.0203 113.348 69.0203 105.524 71.7261L98.5842 74.1249C90.7595 76.8307 79.9577 76.8307 72.133 74.1249L65.1865 71.7261C57.3618 69.0203 46.56 69.0203 38.7353 71.7261L31.7887 74.1249C23.964 76.8307 13.1623 76.8307 5.33757 74.1249L-1.60899 71.7261C-9.43368 69.0203 -20.2355 69.0203 -28.0601 71.7261L-35.0067 74.1249C-42.8314 76.8307 -53.6332 76.8307 -61.4579 74.1249L-68.4044 71.7261C-76.2291 69.0203 -87.0309 69.0203 -94.8556 71.7261L-101.802 74.1249C-109.627 76.8307 -120.429 76.8307 -128.253 74.1249L-135.2 71.7261C-143.531 68.849 -148.422 64.3512 -148.422 59.575V-739.757H1588.16H1588.15Z" fill="#B74A7F"/>
<path opacity="0.6" fill-rule="evenodd" clip-rule="evenodd" d="M-148.426 96.1781V35.8295C-148.426 31.0604 -143.528 26.5626 -135.204 23.6784L-128.257 21.2795C-120.433 18.5737 -109.631 18.5737 -101.806 21.2795L-94.8595 23.6784C-87.0348 26.3842 -76.233 26.3842 -68.4083 23.6784L-61.4618 21.2795C-53.6371 18.5737 -42.8353 18.5737 -35.0106 21.2795L-28.0641 23.6784C-20.2394 26.3842 -9.43759 26.3842 -1.6129 23.6784L5.33365 21.2795C13.1583 18.5737 23.9601 18.5737 31.7848 21.2795L38.7314 23.6784C46.5561 26.3842 57.3578 26.3842 65.1825 23.6784L72.1291 21.2795C79.9538 18.5737 90.7556 18.5737 98.5802 21.2795L105.527 23.6784C113.351 26.3842 124.153 26.3842 131.978 23.6784L138.925 21.2795C146.749 18.5737 157.551 18.5737 165.376 21.2795L172.322 23.6784C180.147 26.3842 190.949 26.3842 198.773 23.6784L205.72 21.2795C213.545 18.5737 224.346 18.5737 232.171 21.2795L239.118 23.6784C246.942 26.3842 257.744 26.3842 265.569 23.6784L272.515 21.2795C280.34 18.5737 291.142 18.5737 298.967 21.2795L305.913 23.6784C313.738 26.3842 324.54 26.3842 332.364 23.6784L339.311 21.2795C347.136 18.5737 357.937 18.5737 365.762 21.2795L372.708 23.6784C380.533 26.3842 391.335 26.3842 399.16 23.6784L406.106 21.2795C413.931 18.5737 424.733 18.5737 432.557 21.2795L439.504 23.6784C447.329 26.3842 458.13 26.3842 465.955 23.6784L472.902 21.2795C480.726 18.5737 491.528 18.5737 499.353 21.2795L506.299 23.6784C514.124 26.3842 524.926 26.3842 532.751 23.6784L539.697 21.2795C547.522 18.5737 558.324 18.5737 566.148 21.2795L573.095 23.6784C580.92 26.3842 591.721 26.3842 599.546 23.6784L606.493 21.2795C614.317 18.5737 625.119 18.5737 632.944 21.2795L639.89 23.6784C647.715 26.3842 658.517 26.3842 666.341 23.6784L673.288 21.2795C681.113 18.5737 691.915 18.5737 699.739 21.2795L706.686 23.6784C714.51 26.3842 725.312 26.3842 733.137 23.6784L740.083 21.2795C747.908 18.5737 758.71 18.5737 766.535 21.2795L773.481 23.6784C781.306 26.3842 792.108 26.3842 799.932 23.6784L806.879 21.2795C814.704 18.5737 825.505 18.5737 833.33 21.2795L840.277 23.6784C848.101 26.3842 858.903 26.3842 866.728 23.6784L873.674 21.2795C881.499 18.5737 892.301 18.5737 900.126 21.2795L907.072 23.6784C914.897 26.3842 925.699 26.3842 933.523 23.6784L940.47 21.2795C948.295 18.5737 959.096 18.5737 966.921 21.2795L973.867 23.6784C981.692 26.3842 992.494 26.3842 1000.32 23.6784L1007.27 21.2795C1015.09 18.5737 1025.89 18.5737 1033.72 21.2795L1040.66 23.6784C1048.49 26.3842 1059.29 26.3842 1067.11 23.6784L1074.06 21.2795C1081.89 18.5737 1092.69 18.5737 1100.51 21.2795L1107.46 23.6784C1115.28 26.3842 1126.08 26.3842 1133.91 23.6784L1140.86 21.2795C1148.68 18.5737 1159.48 18.5737 1167.31 21.2795L1174.25 23.6784C1182.08 26.3842 1192.88 26.3842 1200.7 23.6784L1207.65 21.2795C1215.48 18.5737 1226.28 18.5737 1234.1 21.2795L1241.05 23.6784C1248.87 26.3842 1259.68 26.3842 1267.5 23.6784L1274.45 21.2795C1282.27 18.5737 1293.07 18.5737 1300.9 21.2795L1307.84 23.6784C1315.67 26.3842 1326.47 26.3842 1334.3 23.6784L1341.24 21.2795C1349.07 18.5737 1359.87 18.5737 1367.69 21.2795L1374.64 23.6784C1382.46 26.3842 1393.27 26.3842 1401.09 23.6784L1408.04 21.2795C1415.86 18.5737 1426.66 18.5737 1434.49 21.2795L1441.44 23.6784C1449.26 26.3842 1460.06 26.3842 1467.89 23.6784L1474.83 21.2795C1482.66 18.5737 1493.46 18.5737 1501.28 21.2795L1508.23 23.6784C1516.06 26.3842 1526.86 26.3842 1534.68 23.6784L1541.63 21.2795C1549.45 18.5737 1560.26 18.5737 1568.08 21.2795L1575.03 23.6784C1583.36 26.5555 1588.26 31.0533 1588.26 35.8295V96.1781C1588.26 100.362 1580.83 103.753 1571.67 103.753H-131.841C-141.001 103.753 -148.426 100.362 -148.426 96.1781Z" fill="#CE548F"/>
<path fill-rule="evenodd" clip-rule="evenodd" d="M-148.426 123.786V63.4373C-148.426 58.6682 -143.528 54.1704 -135.204 51.2861L-128.257 48.8873C-120.433 46.1815 -109.631 46.1815 -101.806 48.8873L-94.8595 51.2861C-87.0348 53.9919 -76.233 53.9919 -68.4083 51.2861L-61.4618 48.8873C-53.6371 46.1815 -42.8353 46.1815 -35.0106 48.8873L-28.0641 51.2861C-20.2394 53.9919 -9.4376 53.9919 -1.61291 51.2861L5.33366 48.8873C13.1583 46.1815 23.9601 46.1815 31.7848 48.8873L38.7314 51.2861C46.5561 53.9919 57.3578 53.9919 65.1825 51.2861L72.1291 48.8873C79.9538 46.1815 90.7556 46.1815 98.5802 48.8873L105.527 51.2861C113.351 53.9919 124.153 53.9919 131.978 51.2861L138.925 48.8873C146.749 46.1815 157.551 46.1815 165.376 48.8873L172.322 51.2861C180.147 53.9919 190.949 53.9919 198.773 51.2861L205.72 48.8873C213.545 46.1815 224.346 46.1815 232.171 48.8873L239.118 51.2861C246.942 53.9919 257.744 53.9919 265.569 51.2861L272.515 48.8873C280.34 46.1815 291.142 46.1815 298.967 48.8873L305.913 51.2861C313.738 53.9919 324.54 53.9919 332.364 51.2861L339.311 48.8873C347.136 46.1815 357.937 46.1815 365.762 48.8873L372.709 51.2861C380.533 53.9919 391.335 53.9919 399.16 51.2861L406.106 48.8873C413.931 46.1815 424.733 46.1815 432.557 48.8873L439.504 51.2861C447.329 53.9919 458.13 53.9919 465.955 51.2861L472.902 48.8873C480.726 46.1815 491.528 46.1815 499.353 48.8873L506.299 51.2861C514.124 53.9919 524.926 53.9919 532.751 51.2861L539.697 48.8873C547.522 46.1815 558.324 46.1815 566.148 48.8873L573.095 51.2861C580.92 53.9919 591.721 53.9919 599.546 51.2861L606.493 48.8873C614.317 46.1815 625.119 46.1815 632.944 48.8873L639.89 51.2861C647.715 53.9919 658.517 53.9919 666.341 51.2861L673.288 48.8873C681.113 46.1815 691.915 46.1815 699.739 48.8873L706.686 51.2861C714.51 53.9919 725.312 53.9919 733.137 51.2861L740.083 48.8873C747.908 46.1815 758.71 46.1815 766.535 48.8873L773.481 51.2861C781.306 53.9919 792.108 53.9919 799.932 51.2861L806.879 48.8873C814.704 46.1815 825.505 46.1815 833.33 48.8873L840.277 51.2861C848.101 53.9919 858.903 53.9919 866.728 51.2861L873.674 48.8873C881.499 46.1815 892.301 46.1815 900.126 48.8873L907.072 51.2861C914.897 53.9919 925.699 53.9919 933.523 51.2861L940.47 48.8873C948.295 46.1815 959.096 46.1815 966.921 48.8873L973.867 51.2861C981.692 53.9919 992.494 53.9919 1000.32 51.2861L1007.27 48.8873C1015.09 46.1815 1025.89 46.1815 1033.72 48.8873L1040.66 51.2861C1048.49 53.9919 1059.29 53.9919 1067.11 51.2861L1074.06 48.8873C1081.89 46.1815 1092.69 46.1815 1100.51 48.8873L1107.46 51.2861C1115.28 53.9919 1126.08 53.9919 1133.91 51.2861L1140.86 48.8873C1148.68 46.1815 1159.48 46.1815 1167.31 48.8873L1174.25 51.2861C1182.08 53.9919 1192.88 53.9919 1200.7 51.2861L1207.65 48.8873C1215.48 46.1815 1226.28 46.1815 1234.1 48.8873L1241.05 51.2861C1248.87 53.9919 1259.68 53.9919 1267.5 51.2861L1274.45 48.8873C1282.27 46.1815 1293.07 46.1815 1300.9 48.8873L1307.84 51.2861C1315.67 53.9919 1326.47 53.9919 1334.3 51.2861L1341.24 48.8873C1349.07 46.1815 1359.87 46.1815 1367.69 48.8873L1374.64 51.2861C1382.46 53.9919 1393.27 53.9919 1401.09 51.2861L1408.04 48.8873C1415.86 46.1815 1426.66 46.1815 1434.49 48.8873L1441.44 51.2861C1449.26 53.9919 1460.06 53.9919 1467.89 51.2861L1474.83 48.8873C1482.66 46.1815 1493.46 46.1815 1501.28 48.8873L1508.23 51.2861C1516.06 53.9919 1526.86 53.9919 1534.68 51.2861L1541.63 48.8873C1549.45 46.1815 1560.26 46.1815 1568.08 48.8873L1575.03 51.2861C1583.36 54.1633 1588.26 58.6611 1588.26 63.4373V123.786C1588.26 125.792 1586.51 127.72 1583.4 129.14C1580.3 130.561 1576.07 131.361 1571.67 131.361H-131.841C-141.001 131.361 -148.426 127.97 -148.426 123.786Z" fill="#DC5D9B"/>
<path fill-rule="evenodd" clip-rule="evenodd" d="M-148.426 151.394V91.045C-148.426 86.276 -143.528 81.7782 -135.204 78.8939L-128.257 76.4951C-120.433 73.7893 -109.631 73.7893 -101.806 76.4951L-94.8595 78.8939C-87.0348 81.5997 -76.233 81.5997 -68.4083 78.8939L-61.4618 76.4951C-53.6371 73.7893 -42.8353 73.7893 -35.0106 76.4951L-28.0641 78.8939C-20.2394 81.5997 -9.4376 81.5997 -1.61291 78.8939L5.33366 76.4951C13.1583 73.7893 23.9601 73.7893 31.7848 76.4951L38.7314 78.8939C46.5561 81.5997 57.3578 81.5997 65.1825 78.8939L72.1291 76.4951C79.9538 73.7893 90.7556 73.7893 98.5802 76.4951L105.527 78.8939C113.351 81.5997 124.153 81.5997 131.978 78.8939L138.925 76.4951C146.749 73.7893 157.551 73.7893 165.376 76.4951L172.322 78.8939C180.147 81.5997 190.949 81.5997 198.773 78.8939L205.72 76.4951C213.545 73.7893 224.346 73.7893 232.171 76.4951L239.118 78.8939C246.942 81.5997 257.744 81.5997 265.569 78.8939L272.515 76.4951C280.34 73.7893 291.142 73.7893 298.967 76.4951L305.913 78.8939C313.738 81.5997 324.54 81.5997 332.364 78.8939L339.311 76.4951C347.136 73.7893 357.937 73.7893 365.762 76.4951L372.709 78.8939C380.533 81.5997 391.335 81.5997 399.16 78.8939L406.106 76.4951C413.931 73.7893 424.733 73.7893 432.557 76.4951L439.504 78.8939C447.329 81.5997 458.13 81.5997 465.955 78.8939L472.902 76.4951C480.726 73.7893 491.528 73.7893 499.353 76.4951L506.299 78.8939C514.124 81.5997 524.926 81.5997 532.751 78.8939L539.697 76.4951C547.522 73.7893 558.324 73.7893 566.148 76.4951L573.095 78.8939C580.92 81.5997 591.721 81.5997 599.546 78.8939L606.493 76.4951C614.317 73.7893 625.119 73.7893 632.944 76.4951L639.89 78.8939C647.715 81.5997 658.517 81.5997 666.341 78.8939L673.288 76.4951C681.113 73.7893 691.915 73.7893 699.739 76.4951L706.686 78.8939C714.51 81.5997 725.312 81.5997 733.137 78.8939L740.083 76.4951C747.908 73.7893 758.71 73.7893 766.535 76.4951L773.481 78.8939C781.306 81.5997 792.108 81.5997 799.932 78.8939L806.879 76.4951C814.704 73.7893 825.505 73.7893 833.33 76.4951L840.277 78.8939C848.101 81.5997 858.903 81.5997 866.728 78.8939L873.674 76.4951C881.499 73.7893 892.301 73.7893 900.126 76.4951L907.072 78.8939C914.897 81.5997 925.699 81.5997 933.523 78.8939L940.47 76.4951C948.295 73.7893 959.096 73.7893 966.921 76.4951L973.867 78.8939C981.692 81.5997 992.494 81.5997 1000.32 78.8939L1007.27 76.4951C1015.09 73.7893 1025.89 73.7893 1033.72 76.4951L1040.66 78.8939C1048.49 81.5997 1059.29 81.5997 1067.11 78.8939L1074.06 76.4951C1081.89 73.7893 1092.69 73.7893 1100.51 76.4951L1107.46 78.8939C1115.28 81.5997 1126.08 81.5997 1133.91 78.8939L1140.86 76.4951C1148.68 73.7893 1159.48 73.7893 1167.31 76.4951L1174.25 78.8939C1182.08 81.5997 1192.88 81.5997 1200.7 78.8939L1207.65 76.4951C1215.48 73.7893 1226.28 73.7893 1234.1 76.4951L1241.05 78.8939C1248.87 81.5997 1259.68 81.5997 1267.5 78.8939L1274.45 76.4951C1282.27 73.7893 1293.07 73.7893 1300.9 76.4951L1307.84 78.8939C1315.67 81.5997 1326.47 81.5997 1334.3 78.8939L1341.24 76.4951C1349.07 73.7893 1359.87 73.7893 1367.69 76.4951L1374.64 78.8939C1382.46 81.5997 1393.27 81.5997 1401.09 78.8939L1408.04 76.4951C1415.86 73.7893 1426.66 73.7893 1434.49 76.4951L1441.44 78.8939C1449.26 81.5997 1460.06 81.5997 1467.89 78.8939L1474.83 76.4951C1482.66 73.7893 1493.46 73.7893 1501.28 76.4951L1508.23 78.8939C1516.06 81.5997 1526.86 81.5997 1534.68 78.8939L1541.63 76.4951C1549.45 73.7893 1560.26 73.7893 1568.08 76.4951L1575.03 78.8939C1583.36 81.7711 1588.26 86.2688 1588.26 91.045V151.394C1588.26 153.4 1586.51 155.327 1583.4 156.748C1580.3 158.169 1576.07 158.969 1571.67 158.969H-131.841C-141.001 158.969 -148.426 155.577 -148.426 151.394Z" fill="#F27AB5"/>
<path fill-rule="evenodd" clip-rule="evenodd" d="M-148.426 179.001V118.653C-148.426 113.884 -143.528 109.386 -135.204 106.502L-128.257 104.103C-120.433 101.397 -109.631 101.397 -101.806 104.103L-94.8595 106.502C-87.0348 109.207 -76.233 109.207 -68.4083 106.502L-61.4618 104.103C-53.6371 101.397 -42.8353 101.397 -35.0106 104.103L-28.0641 106.502C-20.2394 109.207 -9.4376 109.207 -1.61291 106.502L5.33366 104.103C13.1583 101.397 23.9601 101.397 31.7848 104.103L38.7314 106.502C46.5561 109.207 57.3578 109.207 65.1825 106.502L72.1291 104.103C79.9538 101.397 90.7556 101.397 98.5802 104.103L105.527 106.502C113.351 109.207 124.153 109.207 131.978 106.502L138.925 104.103C146.749 101.397 157.551 101.397 165.376 104.103L172.322 106.502C180.147 109.207 190.949 109.207 198.773 106.502L205.72 104.103C213.545 101.397 224.346 101.397 232.171 104.103L239.118 106.502C246.942 109.207 257.744 109.207 265.569 106.502L272.515 104.103C280.34 101.397 291.142 101.397 298.967 104.103L305.913 106.502C313.738 109.207 324.54 109.207 332.364 106.502L339.311 104.103C347.136 101.397 357.937 101.397 365.762 104.103L372.709 106.502C380.533 109.207 391.335 109.207 399.16 106.502L406.106 104.103C413.931 101.397 424.733 101.397 432.557 104.103L439.504 106.502C447.329 109.207 458.13 109.207 465.955 106.502L472.902 104.103C480.726 101.397 491.528 101.397 499.353 104.103L506.299 106.502C514.124 109.207 524.926 109.207 532.751 106.502L539.697 104.103C547.522 101.397 558.324 101.397 566.148 104.103L573.095 106.502C580.92 109.207 591.721 109.207 599.546 106.502L606.493 104.103C614.317 101.397 625.119 101.397 632.944 104.103L639.89 106.502C647.715 109.207 658.517 109.207 666.341 106.502L673.288 104.103C681.113 101.397 691.915 101.397 699.739 104.103L706.686 106.502C714.51 109.207 725.312 109.207 733.137 106.502L740.083 104.103C747.908 101.397 758.71 101.397 766.535 104.103L773.481 106.502C781.306 109.207 792.108 109.207 799.932 106.502L806.879 104.103C814.704 101.397 825.505 101.397 833.33 104.103L840.277 106.502C848.101 109.207 858.903 109.207 866.728 106.502L873.674 104.103C881.499 101.397 892.301 101.397 900.126 104.103L907.072 106.502C914.897 109.207 925.699 109.207 933.523 106.502L940.47 104.103C948.295 101.397 959.096 101.397 966.921 104.103L973.867 106.502C981.692 109.207 992.494 109.207 1000.32 106.502L1007.27 104.103C1015.09 101.397 1025.89 101.397 1033.72 104.103L1040.66 106.502C1048.49 109.207 1059.29 109.207 1067.11 106.502L1074.06 104.103C1081.89 101.397 1092.69 101.397 1100.51 104.103L1107.46 106.502C1115.28 109.207 1126.08 109.207 1133.91 106.502L1140.86 104.103C1148.68 101.397 1159.48 101.397 1167.31 104.103L1174.25 106.502C1182.08 109.207 1192.88 109.207 1200.7 106.502L1207.65 104.103C1215.48 101.397 1226.28 101.397 1234.1 104.103L1241.05 106.502C1248.87 109.207 1259.68 109.207 1267.5 106.502L1274.45 104.103C1282.27 101.397 1293.07 101.397 1300.9 104.103L1307.84 106.502C1315.67 109.207 1326.47 109.207 1334.3 106.502L1341.24 104.103C1349.07 101.397 1359.87 101.397 1367.69 104.103L1374.64 106.502C1382.46 109.207 1393.27 109.207 1401.09 106.502L1408.04 104.103C1415.86 101.397 1426.66 101.397 1434.49 104.103L1441.44 106.502C1449.26 109.207 1460.06 109.207 1467.89 106.502L1474.83 104.103C1482.66 101.397 1493.46 101.397 1501.28 104.103L1508.23 106.502C1516.06 109.207 1526.86 109.207 1534.68 106.502L1541.63 104.103C1549.45 101.397 1560.26 101.397 1568.08 104.103L1575.03 106.502C1583.36 109.379 1588.26 113.877 1588.26 118.653V179.001C1588.26 183.185 1580.83 186.576 1571.67 186.576H-131.841C-141.001 186.576 -148.426 183.185 -148.426 179.001Z" fill="#FF89C3"/>
<path fill-rule="evenodd" clip-rule="evenodd" d="M-148.426 206.602V146.253C-148.426 141.484 -143.528 136.987 -135.204 134.102L-128.257 131.703C-120.433 128.998 -109.631 128.998 -101.806 131.703L-94.8595 134.102C-87.0348 136.808 -76.233 136.808 -68.4083 134.102L-61.4618 131.703C-53.6371 128.998 -42.8353 128.998 -35.0106 131.703L-28.0641 134.102C-20.2394 136.808 -9.4376 136.808 -1.61291 134.102L5.33366 131.703C13.1583 128.998 23.9601 128.998 31.7848 131.703L38.7314 134.102C46.5561 136.808 57.3578 136.808 65.1825 134.102L72.1291 131.703C79.9538 128.998 90.7556 128.998 98.5802 131.703L105.527 134.102C113.351 136.808 124.153 136.808 131.978 134.102L138.925 131.703C146.749 128.998 157.551 128.998 165.376 131.703L172.322 134.102C180.147 136.808 190.949 136.808 198.773 134.102L205.72 131.703C213.545 128.998 224.346 128.998 232.171 131.703L239.118 134.102C246.942 136.808 257.744 136.808 265.569 134.102L272.515 131.703C280.34 128.998 291.142 128.998 298.967 131.703L305.913 134.102C313.738 136.808 324.54 136.808 332.364 134.102L339.311 131.703C347.136 128.998 357.937 128.998 365.762 131.703L372.709 134.102C380.533 136.808 391.335 136.808 399.16 134.102L406.106 131.703C413.931 128.998 424.733 128.998 432.557 131.703L439.504 134.102C447.329 136.808 458.13 136.808 465.955 134.102L472.902 131.703C480.726 128.998 491.528 128.998 499.353 131.703L506.299 134.102C514.124 136.808 524.926 136.808 532.751 134.102L539.697 131.703C547.522 128.998 558.324 128.998 566.148 131.703L573.095 134.102C580.92 136.808 591.721 136.808 599.546 134.102L606.493 131.703C614.317 128.998 625.119 128.998 632.944 131.703L639.89 134.102C647.715 136.808 658.517 136.808 666.341 134.102L673.288 131.703C681.113 128.998 691.915 128.998 699.739 131.703L706.686 134.102C714.51 136.808 725.312 136.808 733.137 134.102L740.083 131.703C747.908 128.998 758.71 128.998 766.535 131.703L773.481 134.102C781.306 136.808 792.108 136.808 799.932 134.102L806.879 131.703C814.704 128.998 825.505 128.998 833.33 131.703L840.277 134.102C848.101 136.808 858.903 136.808 866.728 134.102L873.674 131.703C881.499 128.998 892.301 128.998 900.126 131.703L907.072 134.102C914.897 136.808 925.699 136.808 933.523 134.102L940.47 131.703C948.295 128.998 959.096 128.998 966.921 131.703L973.867 134.102C981.692 136.808 992.494 136.808 1000.32 134.102L1007.27 131.703C1015.09 128.998 1025.89 128.998 1033.72 131.703L1040.66 134.102C1048.49 136.808 1059.29 136.808 1067.11 134.102L1074.06 131.703C1081.89 128.998 1092.69 128.998 1100.51 131.703L1107.46 134.102C1115.28 136.808 1126.08 136.808 1133.91 134.102L1140.86 131.703C1148.68 128.998 1159.48 128.998 1167.31 131.703L1174.25 134.102C1182.08 136.808 1192.88 136.808 1200.7 134.102L1207.65 131.703C1215.48 128.998 1226.28 128.998 1234.1 131.703L1241.05 134.102C1248.87 136.808 1259.68 136.808 1267.5 134.102L1274.45 131.703C1282.27 128.998 1293.07 128.998 1300.9 131.703L1307.84 134.102C1315.67 136.808 1326.47 136.808 1334.3 134.102L1341.24 131.703C1349.07 128.998 1359.87 128.998 1367.69 131.703L1374.64 134.102C1382.46 136.808 1393.27 136.808 1401.09 134.102L1408.04 131.703C1415.86 128.998 1426.66 128.998 1434.49 131.703L1441.44 134.102C1449.26 136.808 1460.06 136.808 1467.89 134.102L1474.83 131.703C1482.66 128.998 1493.46 128.998 1501.28 131.703L1508.23 134.102C1516.06 136.808 1526.86 136.808 1534.68 134.102L1541.63 131.703C1549.45 128.998 1560.26 128.998 1568.08 131.703L1575.03 134.102C1583.36 136.979 1588.26 141.477 1588.26 146.246V206.595C1588.26 208.601 1586.51 210.529 1583.4 211.949C1580.3 213.37 1576.07 214.17 1571.67 214.17H-131.841C-141.001 214.17 -148.426 210.779 -148.426 206.595V206.602Z" fill="#FFA4D0"/>
<path fill-rule="evenodd" clip-rule="evenodd" d="M-148.426 234.21V173.861C-148.426 169.092 -143.528 164.594 -135.204 161.71L-128.257 159.311C-120.433 156.605 -109.631 156.605 -101.806 159.311L-94.8595 161.71C-87.0348 164.416 -76.233 164.416 -68.4083 161.71L-61.4618 159.311C-53.6371 156.605 -42.8353 156.605 -35.0106 159.311L-28.0641 161.71C-20.2394 164.416 -9.4376 164.416 -1.61291 161.71L5.33366 159.311C13.1583 156.605 23.9601 156.605 31.7848 159.311L38.7314 161.71C46.5561 164.416 57.3578 164.416 65.1825 161.71L72.1291 159.311C79.9538 156.605 90.7556 156.605 98.5802 159.311L105.527 161.71C113.351 164.416 124.153 164.416 131.978 161.71L138.925 159.311C146.749 156.605 157.551 156.605 165.376 159.311L172.322 161.71C180.147 164.416 190.949 164.416 198.773 161.71L205.72 159.311C213.545 156.605 224.346 156.605 232.171 159.311L239.118 161.71C246.942 164.416 257.744 164.416 265.569 161.71L272.515 159.311C280.34 156.605 291.142 156.605 298.967 159.311L305.913 161.71C313.738 164.416 324.54 164.416 332.364 161.71L339.311 159.311C347.136 156.605 357.937 156.605 365.762 159.311L372.709 161.71C380.533 164.416 391.335 164.416 399.16 161.71L406.106 159.311C413.931 156.605 424.733 156.605 432.557 159.311L439.504 161.71C447.329 164.416 458.13 164.416 465.955 161.71L472.902 159.311C480.726 156.605 491.528 156.605 499.353 159.311L506.299 161.71C514.124 164.416 524.926 164.416 532.751 161.71L539.697 159.311C547.522 156.605 558.324 156.605 566.148 159.311L573.095 161.71C580.92 164.416 591.721 164.416 599.546 161.71L606.493 159.311C614.317 156.605 625.119 156.605 632.944 159.311L639.89 161.71C647.715 164.416 658.517 164.416 666.341 161.71L673.288 159.311C681.113 156.605 691.915 156.605 699.739 159.311L706.686 161.71C714.51 164.416 725.312 164.416 733.137 161.71L740.083 159.311C747.908 156.605 758.71 156.605 766.535 159.311L773.481 161.71C781.306 164.416 792.108 164.416 799.932 161.71L806.879 159.311C814.704 156.605 825.505 156.605 833.33 159.311L840.277 161.71C848.101 164.416 858.903 164.416 866.728 161.71L873.674 159.311C881.499 156.605 892.301 156.605 900.126 159.311L907.072 161.71C914.897 164.416 925.699 164.416 933.523 161.71L940.47 159.311C948.295 156.605 959.096 156.605 966.921 159.311L973.867 161.71C981.692 164.416 992.494 164.416 1000.32 161.71L1007.27 159.311C1015.09 156.605 1025.89 156.605 1033.72 159.311L1040.66 161.71C1048.49 164.416 1059.29 164.416 1067.11 161.71L1074.06 159.311C1081.89 156.605 1092.69 156.605 1100.51 159.311L1107.46 161.71C1115.28 164.416 1126.08 164.416 1133.91 161.71L1140.86 159.311C1148.68 156.605 1159.48 156.605 1167.31 159.311L1174.25 161.71C1182.08 164.416 1192.88 164.416 1200.7 161.71L1207.65 159.311C1215.48 156.605 1226.28 156.605 1234.1 159.311L1241.05 161.71C1248.87 164.416 1259.68 164.416 1267.5 161.71L1274.45 159.311C1282.27 156.605 1293.07 156.605 1300.9 159.311L1307.84 161.71C1315.67 164.416 1326.47 164.416 1334.3 161.71L1341.24 159.311C1349.07 156.605 1359.87 156.605 1367.69 159.311L1374.64 161.71C1382.46 164.416 1393.27 164.416 1401.09 161.71L1408.04 159.311C1415.86 156.605 1426.66 156.605 1434.49 159.311L1441.44 161.71C1449.26 164.416 1460.06 164.416 1467.89 161.71L1474.83 159.311C1482.66 156.605 1493.46 156.605 1501.28 159.311L1508.23 161.71C1516.06 164.416 1526.86 164.416 1534.68 161.71L1541.63 159.311C1549.45 156.605 1560.26 156.605 1568.08 159.311L1575.03 161.71C1583.36 164.587 1588.26 169.085 1588.26 173.861V234.21C1588.26 238.393 1580.83 241.785 1571.67 241.785H-131.841C-141.001 241.785 -148.426 238.393 -148.426 234.21Z" fill="#FFC4E1"/>
<path fill-rule="evenodd" clip-rule="evenodd" d="M-152.055 261.817V201.469C-152.055 196.7 -147.164 192.202 -138.833 189.318L-131.886 186.919C-124.061 184.213 -113.26 184.213 -105.435 186.919L-98.4884 189.318C-90.6637 192.024 -79.8619 192.024 -72.0372 189.318L-65.0907 186.919C-57.266 184.213 -46.4642 184.213 -38.6395 186.919L-31.693 189.318C-23.8683 192.024 -13.0665 192.024 -5.24179 189.318L1.70477 186.919C9.52946 184.213 20.3312 184.213 28.1559 186.919L35.1025 189.318C42.9272 192.024 53.729 192.024 61.5537 189.318L68.5002 186.919C76.3249 184.213 87.1267 184.213 94.9514 186.919L101.898 189.318C109.723 192.024 120.524 192.024 128.349 189.318L135.296 186.919C143.12 184.213 153.922 184.213 161.747 186.919L168.693 189.318C176.518 192.024 187.32 192.024 195.145 189.318L202.091 186.919C209.916 184.213 220.718 184.213 228.542 186.919L235.489 189.318C243.313 192.024 254.115 192.024 261.94 189.318L268.887 186.919C276.711 184.213 287.513 184.213 295.338 186.919L302.284 189.318C310.109 192.024 320.911 192.024 328.735 189.318L335.682 186.919C343.507 184.213 354.308 184.213 362.133 186.919L369.08 189.318C376.904 192.024 387.706 192.024 395.531 189.318L402.477 186.919C410.302 184.213 421.104 184.213 428.929 186.919L435.875 189.318C443.7 192.024 454.502 192.024 462.326 189.318L469.266 186.919C477.09 184.213 487.892 184.213 495.717 186.919L502.663 189.318C510.488 192.024 521.29 192.024 529.115 189.318L536.054 186.919C543.879 184.213 554.681 184.213 562.505 186.919L569.452 189.318C577.276 192.024 588.078 192.024 595.903 189.318L602.842 186.919C610.667 184.213 621.469 184.213 629.293 186.919L636.24 189.318C644.065 192.024 654.866 192.024 662.691 189.318L669.631 186.919C677.455 184.213 688.257 184.213 696.082 186.919L703.028 189.318C710.853 192.024 721.655 192.024 729.48 189.318L736.419 186.919C744.244 184.213 755.045 184.213 762.87 186.919L769.817 189.318C777.641 192.024 788.443 192.024 796.268 189.318L803.207 186.919C811.032 184.213 821.834 184.213 829.658 186.919L836.605 189.318C844.43 192.024 855.231 192.024 863.056 189.318L869.996 186.919C877.82 184.213 888.622 184.213 896.447 186.919L903.393 189.318C911.218 192.024 922.02 192.024 929.844 189.318L936.784 186.919C944.609 184.213 955.41 184.213 963.235 186.919L970.182 189.318C978.006 192.024 988.808 192.024 996.633 189.318L1003.57 186.919C1011.4 184.213 1022.2 184.213 1030.02 186.919L1036.97 189.318C1044.79 192.024 1055.6 192.024 1063.42 189.318L1070.36 186.919C1078.19 184.213 1088.99 184.213 1096.81 186.919L1103.76 189.318C1111.58 192.024 1122.38 192.024 1130.21 189.318L1137.15 186.919C1144.97 184.213 1155.78 184.213 1163.6 186.919L1170.55 189.318C1178.37 192.024 1189.17 192.024 1197 189.318L1203.94 186.919C1211.76 184.213 1222.56 184.213 1230.39 186.919L1237.33 189.318C1245.16 192.024 1255.96 192.024 1263.79 189.318L1270.73 186.919C1278.55 184.213 1289.35 184.213 1297.18 186.919L1304.12 189.318C1311.95 192.024 1322.75 192.024 1330.57 189.318L1337.51 186.919C1345.34 184.213 1356.14 184.213 1363.96 186.919L1370.91 189.318C1378.74 192.024 1389.54 192.024 1397.36 189.318L1404.3 186.919C1412.13 184.213 1422.93 184.213 1430.75 186.919L1437.7 189.318C1445.52 192.024 1456.33 192.024 1464.15 189.318L1471.1 186.919C1478.92 184.213 1489.72 184.213 1497.55 186.919L1504.5 189.318C1512.32 192.024 1523.12 192.024 1530.95 189.318L1537.89 186.919C1545.72 184.213 1556.52 184.213 1564.34 186.919L1571.29 189.318C1579.62 192.195 1584.51 196.693 1584.51 201.469V261.817C1584.51 266.001 1577.09 269.392 1567.93 269.392H-135.47C-144.63 269.392 -152.055 266.001 -152.055 261.817Z" fill="#FFDBE4"/>
<path fill-rule="evenodd" clip-rule="evenodd" d="M-152.055 297V229.077C-152.055 224.307 -147.164 219.81 -138.833 216.925L-131.886 214.527C-124.061 211.821 -113.26 211.821 -105.435 214.527L-98.4884 216.925C-90.6637 219.631 -79.8619 219.631 -72.0372 216.925L-65.0907 214.527C-57.266 211.821 -46.4642 211.821 -38.6395 214.527L-31.693 216.925C-23.8683 219.631 -13.0665 219.631 -5.24179 216.925L1.70477 214.527C9.52946 211.821 20.3312 211.821 28.1559 214.527L35.1025 216.925C42.9272 219.631 53.729 219.631 61.5537 216.925L68.5002 214.527C76.3249 211.821 87.1267 211.821 94.9514 214.527L101.898 216.925C109.723 219.631 120.524 219.631 128.349 216.925L135.296 214.527C143.12 211.821 153.922 211.821 161.747 214.527L168.693 216.925C176.518 219.631 187.32 219.631 195.145 216.925L202.091 214.527C209.916 211.821 220.718 211.821 228.542 214.527L235.489 216.925C243.313 219.631 254.115 219.631 261.94 216.925L268.887 214.527C276.711 211.821 287.513 211.821 295.338 214.527L302.284 216.925C310.109 219.631 320.911 219.631 328.735 216.925L335.682 214.527C343.507 211.821 354.308 211.821 362.133 214.527L369.08 216.925C376.904 219.631 387.706 219.631 395.531 216.925L402.477 214.527C410.302 211.821 421.104 211.821 428.929 214.527L435.875 216.925C443.7 219.631 454.502 219.631 462.326 216.925L469.266 214.527C477.09 211.821 487.892 211.821 495.717 214.527L502.663 216.925C510.488 219.631 521.29 219.631 529.115 216.925L536.054 214.527C543.879 211.821 554.681 211.821 562.505 214.527L569.452 216.925C577.276 219.631 588.078 219.631 595.903 216.925L602.842 214.527C610.667 211.821 621.469 211.821 629.293 214.527L636.24 216.925C644.065 219.631 654.866 219.631 662.691 216.925L669.631 214.527C677.455 211.821 688.257 211.821 696.082 214.527L703.028 216.925C710.853 219.631 721.655 219.631 729.48 216.925L736.419 214.527C744.244 211.821 755.045 211.821 762.87 214.527L769.817 216.925C777.641 219.631 788.443 219.631 796.268 216.925L803.207 214.527C811.032 211.821 821.834 211.821 829.658 214.527L836.605 216.925C844.43 219.631 855.231 219.631 863.056 216.925L869.996 214.527C877.82 211.821 888.622 211.821 896.447 214.527L903.393 216.925C911.218 219.631 922.02 219.631 929.844 216.925L936.784 214.527C944.609 211.821 955.41 211.821 963.235 214.527L970.182 216.925C978.006 219.631 988.808 219.631 996.633 216.925L1003.57 214.527C1011.4 211.821 1022.2 211.821 1030.02 214.527L1036.97 216.925C1044.79 219.631 1055.6 219.631 1063.42 216.925L1070.36 214.527C1078.19 211.821 1088.99 211.821 1096.81 214.527L1103.76 216.925C1111.58 219.631 1122.38 219.631 1130.21 216.925L1137.15 214.527C1144.97 211.821 1155.78 211.821 1163.6 214.527L1170.55 216.925C1178.37 219.631 1189.17 219.631 1197 216.925L1203.94 214.527C1211.76 211.821 1222.56 211.821 1230.39 214.527L1237.33 216.925C1245.16 219.631 1255.96 219.631 1263.79 216.925L1270.73 214.527C1278.55 211.821 1289.35 211.821 1297.18 214.527L1304.12 216.925C1311.95 219.631 1322.75 219.631 1330.57 216.925L1337.51 214.527C1345.34 211.821 1356.14 211.821 1363.96 214.527L1370.91 216.925C1378.74 219.631 1389.54 219.631 1397.36 216.925L1404.3 214.527C1412.13 211.821 1422.93 211.821 1430.75 214.527L1437.7 216.925C1445.52 219.631 1456.33 219.631 1464.15 216.925L1471.1 214.527C1478.92 211.821 1489.72 211.821 1497.55 214.527L1504.5 216.925C1512.32 219.631 1523.12 219.631 1530.95 216.925L1537.89 214.527C1545.72 211.821 1556.52 211.821 1564.34 214.527L1571.29 216.925C1579.62 219.803 1584.51 224.3 1584.51 229.077V297H-152.055Z" fill="#FCE1E8"/>
</g>
<defs>
<clipPath id="clip0_2044_224">
<rect width="1440" height="231" fill="white" transform="matrix(1 0 0 -1 0 231)"/>
</clipPath>
</defs>
</svg>
